<svg width="840" height="220" viewBox="0 0 840 220" fill="none" xmlns="http://www.w3.org/2000/svg" role="img" aria-labelledby="title desc">
  <title id="title">Vishome primary logo</title>
  <desc id="desc">A modern wordmark logo for Vishome with an interwoven carpet tile symbol.</desc>
  <defs>
    <linearGradient id="tileGradient" x1="34" y1="32" x2="152" y2="164" gradientUnits="userSpaceOnUse">
      <stop stop-color="#164E63"/>
      <stop offset="1" stop-color="#0F2F3D"/>
    </linearGradient>
    <linearGradient id="accentGradient" x1="44" y1="46" x2="142" y2="153" gradientUnits="userSpaceOnUse">
      <stop stop-color="#D6A95A"/>
      <stop offset="1" stop-color="#B9822F"/>
    </linearGradient>
    <filter id="softShadow" x="0" y="0" width="190" height="190" filterUnits="userSpaceOnUse" color-interpolation-filters="sRGB">
      <feDropShadow dx="0" dy="12" stdDeviation="14" flood-color="#0F2F3D" flood-opacity="0.18"/>
    </filter>
  </defs>
  <rect width="840" height="220" rx="28" fill="#F7F5EF"/>
  <g filter="url(#softShadow)">
    <rect x="42" y="38" width="144" height="144" rx="34" fill="url(#tileGradient)"/>
  </g>
  <path d="M79 72H111L126 130L141 72H171L143 152H111L79 72Z" fill="#F8F3E8"/>
  <path d="M78 72H112L129 134L114 152L78 72Z" fill="url(#accentGradient)"/>
  <path d="M101 72H131L116 109H88L101 72Z" fill="#F8F3E8" fill-opacity="0.88"/>
  <path d="M126 72H171L161 101H136L126 72Z" fill="#F8F3E8" fill-opacity="0.75"/>
  <path d="M88 121H118L111 152H76L88 121Z" fill="#F8F3E8" fill-opacity="0.22"/>
  <path d="M134 121H158L143 152H113L134 121Z" fill="#D6A95A" fill-opacity="0.26"/>
  <text x="225" y="132" fill="#17242B" font-family="Avenir Next, Montserrat, Helvetica Neue, Arial, sans-serif" font-size="64" font-weight="700" letter-spacing="0">Vishome</text>
  <text x="230" y="164" fill="#66737A" font-family="Avenir Next, Montserrat, Helvetica Neue, Arial, sans-serif" font-size="18" font-weight="600" letter-spacing="3.8">COMMERCIAL CARPET SOLUTIONS</text>
</svg>
